<?xml version="1.0" encoding="utf-8"?>
<!-- Generator: Adobe Illustrator 15.1.0, SVG Export Plug-In . SVG Version: 6.00 Build 0)  -->
<!DOCTYPE svg PUBLIC "-//W3C//DTD SVG 1.1//EN" "http://www.w3.org/Graphics/SVG/1.1/DTD/svg11.dtd">
<svg version="1.1" id="Layer_1" xmlns="http://www.w3.org/2000/svg" xmlns:xlink="http://www.w3.org/1999/xlink" x="0px" y="0px"
	 width="612px" height="792px" viewBox="0 0 612 792" enable-background="new 0 0 612 792" xml:space="preserve">
<path fill-rule="evenodd" clip-rule="evenodd" stroke="#000000" stroke-width="2.9999" stroke-linecap="round" stroke-linejoin="round" stroke-miterlimit="22.9256" d="
	M192.605,475.982c-1.126,1.756-2.259,3.469-3.451,5.097l-0.502,0.675c-1.137,5.249-3.32,9.777-6.977,14.253
	c-4.226,5.172-10.418,10.272-17.799,13.083c-1.586,8.401-3.153,19.649-3.615,29.977c-0.512,11.42,0.329,21.712-0.406,33.474
	c-0.735,11.761-3.046,24.991-7.561,42.528c-4.516,17.537-11.236,39.378-17.431,58.176c-6.196,18.796-11.867,34.548-15.017,45.574
	c-3.15,11.025-3.78,17.325-5.775,16.486c-1.996-0.84-5.356-8.821-7.351-17.222c-1.996-8.401-2.626-17.222-3.991-19.952
	s-3.465,0.63-5.985,4.831c-2.521,4.2-5.46,9.24-7.036,11.026c-1.576,1.785-1.785,0.314-2.625-6.511
	c-0.84-6.826-2.311-19.008-0.21-40.009c2.1-21.003,7.771-50.826,7.875-57.757c0.104-6.931-5.355,9.031-10.291,23.207
	c-4.936,14.177-9.346,26.568-13.336,37.49c-3.99,10.921-7.561,20.371-9.976,18.585c-2.416-1.784-3.676-14.806-4.096-26.355
	c-0.42-11.552,0-21.633-1.681-25.203c-1.68-3.57-5.459-0.631-9.555,3.57c-4.096,4.2-8.507,9.66-9.557,5.774
	c-1.05-3.885,1.26-17.115,4.096-28.771c2.834-11.656,6.194-21.737,11.161-34.186c4.928-12.354,11.44-27.042,20.266-38.863
	c-6.989-10.106-10.544-17.864-10.951-26.604c-0.42-9.031,2.52-19.112,9.136-26.673c6.615-7.562,16.907-12.602,28.598-16.573
	c4.919-1.671,10.086-3.153,15.36-4.24c-0.913-10.043,3.407-18.324,10.752-24.025c2.08-1.616,4.405-3.023,6.907-4.279
	c-0.452-1.71-0.902-3.311-1.34-4.749c-2.205-7.246-4.096-10.397-6.93-14.387c-2.836-3.99-6.616-8.822-8.296-15.017
	c-1.68-6.196-1.26-13.757-0.735-19.638s1.156-10.081-0.945-15.331c-2.1-5.251-6.931-11.551-9.451-17.642
	c-2.52-6.092-2.731-11.972-2.626-16.173c0.104-4.201,0.525-6.72,2.205-11.235c1.681-4.516,4.621-11.026,3.571-16.486
	c-1.051-5.461-6.091-9.872-8.821-15.647c-2.731-5.776-3.15-12.916-2.625-17.747c0.525-4.831,1.996-7.351,4.516-11.551
	c2.519-4.201,6.09-10.081,6.51-15.122c0.42-5.041-2.311-9.24-3.571-13.966s-1.05-9.977,2.416-15.017
	c3.465-5.041,10.186-9.872,13.756-14.178c3.57-4.305,3.99-8.084,4.41-11.865s0.84-7.561,3.045-11.55
	c2.205-3.991,6.195-8.191,10.605-12.286c4.41-4.096,9.241-8.087,11.971-12.917c2.73-4.83,3.36-10.501,6.194-16.119
	c2.833-5.618,7.873-11.183,14.487-14.594c6.614-3.413,14.805-4.673,20.896-8.034c6.091-3.361,10.082-8.82,13.757-14.176
	c3.675-5.356,7.035-10.606,11.76-13.966c4.726-3.36,10.817-4.831,15.542-6.301c4.726-1.471,8.085-2.94,10.816-5.881
	c2.729-2.941,4.83-7.351,8.086-10.71c3.255-3.36,7.665-5.671,13.021-6.616c5.355-0.945,11.655-0.525,16.38-1.89
	c4.726-1.365,7.876-4.516,10.606-7.036c2.73-2.521,5.041-4.411,9.662-4.201c4.62,0.209,11.551,2.521,17.222,2.731
	c5.67,0.209,10.08-1.681,14.596-5.041c4.516-3.361,9.135-8.192,15.121-9.452c5.985-1.26,13.337,1.051,20.268,2.835
	c6.931,1.786,13.441,3.045,18.797,2.101s9.555-4.096,15.593-5.881s13.915-2.205,20.95,0.946c7.035,3.15,13.231,9.87,18.588,11.813
	c5.355,1.942,9.87-0.893,17.536,0.368c7.666,1.259,18.481,6.615,24.1,11.498c5.618,4.883,6.038,9.294,6.669,14.23
	c0.629,4.935,1.47,10.395,5.67,13.651c4.2,3.254,11.761,4.305,16.276,9.976s5.985,15.961,5.461,23.522
	c-0.525,7.561-3.046,12.391-2.415,16.066c0.629,3.675,4.409,6.195,6.93,11.026c2.521,4.831,3.78,11.971,3.57,17.432
	c-0.21,5.46-1.891,9.24-5.461,13.021c-3.571,3.779-9.033,7.56-9.139,14.49s5.145,17.012,8.505,26.462
	c3.36,9.451,4.83,18.271,5.985,25.203c1.156,6.931,1.995,11.97,3.466,16.171c1.47,4.201,3.57,7.56,4.2,13.756
	c0.63,6.195-0.21,15.226-1.785,21.422c-1.575,6.195-3.886,9.555-4.307,12.6c-0.419,3.045,1.052,5.776,6.302,13.757
	c5.25,7.98,14.281,21.211,21.106,28.667c6.826,7.455,11.446,9.135,15.018,12.391c3.569,3.255,6.09,8.085,6.616,14.071
	c0.524,5.986-0.946,13.126-4.097,17.747c-3.149,4.62-7.981,6.721-12.916,7.771c-4.936,1.05-9.976,1.05-13.126,2.94
	c-3.15,1.89-4.411,5.669-3.991,10.29c0.421,4.62,2.521,10.08,3.361,14.386c0.84,4.306,0.42,7.456-1.155,9.452
	c-1.575,1.994-4.306,2.834-4.411,4.725c-0.104,1.89,2.416,4.83,3.361,8.086c0.944,3.255,0.314,6.826-1.995,8.926
	c-2.311,2.1-6.301,2.73-10.396,4.936c-4.096,2.205-8.297,5.984-10.187,10.5c-1.891,4.516-1.471,9.767-1.051,14.808
	c0.42,5.039,0.84,9.87-1.681,14.49c-2.52,4.62-7.98,9.031-13.335,11.236c-5.356,2.205-10.606,2.205-14.912,1.681
	c-4.305-0.525-7.665-1.576-11.026-0.735c-3.36,0.84-6.72,3.57-10.605,6.406c-19.038,13.891-14.058-3.319-5.837,26.557
	c2.804,10.192,8.685,24.684,18.136,55.241c9.449,30.558,22.472,77.181,29.612,107.004c7.141,29.822,8.399,42.845,3.149,37.594
	c-5.251-5.251-17.011-28.772-43.683-56.075c-26.673-27.303-68.258-58.385-106.9-80.751c-38.645-22.367-74.347-36.02-103.12-42.844
	c-28.772-6.826-50.614-6.826-64.266-4.306c-13.652,2.521-19.111,7.561-17.431-0.211c1.68-7.771,10.5-28.352,15.023-47.43
	c4.522-19.078,4.746-36.652,4.857-45.439c0.112-8.787,0.112-8.787-1.617-5.692C194.872,473.073,193.728,475.119,192.605,475.982z"/>
</svg>
